<svg width="18" height="19" viewBox="0 0 18 19" fill="none" xmlns="http://www.w3.org/2000/svg">
<path d="M7.49999 3.87265C4.90199 3.87265 2.99999 5.65615 2.99999 7.62265C2.99999 8.28265 3.20474 8.9059 3.57374 9.45265C3.63679 9.54594 3.67802 9.65223 3.69438 9.76362C3.71074 9.87502 3.7018 9.98868 3.66824 10.0962L3.32699 11.1904L5.04824 10.9144C5.18773 10.892 5.33072 10.9094 5.46074 10.9647C6.10611 11.2365 6.79971 11.3753 7.49999 11.3727C10.098 11.3727 12 9.58915 12 7.62265C12 5.65615 10.098 3.87265 7.49999 3.87265ZM1.49999 7.62265C1.49999 4.6189 4.29899 2.37265 7.49999 2.37265C10.701 2.37265 13.5 4.6189 13.5 7.62265C13.5 10.6264 10.701 12.8727 7.49999 12.8727C6.67256 12.8747 5.85184 12.7242 5.07899 12.4287L2.36849 12.8637C2.24233 12.8839 2.11309 12.8716 1.99302 12.8279C1.87295 12.7842 1.76603 12.7106 1.68241 12.614C1.59879 12.5173 1.54124 12.401 1.51522 12.2759C1.48921 12.1508 1.49558 12.0211 1.53374 11.8992L2.13374 9.9769C1.71969 9.26131 1.50113 8.4494 1.49999 7.62265Z" fill="#849AA9"/>
<path d="M12.0555 6.27264C12.0183 6.36389 11.9994 6.46158 11.9999 6.56013C12.0005 6.65868 12.0204 6.75615 12.0587 6.84698C12.0969 6.9378 12.1527 7.0202 12.2228 7.08947C12.2929 7.15873 12.376 7.2135 12.4672 7.25064C14.0197 7.88289 15 9.1939 15 10.6226C15 11.2826 14.7952 11.9059 14.4262 12.4526C14.3632 12.5459 14.322 12.6522 14.3056 12.7636C14.2892 12.875 14.2982 12.9887 14.3317 13.0961L14.673 14.1904L12.9517 13.9144C12.8122 13.892 12.6693 13.9094 12.5392 13.9646C11.8939 14.2365 11.2003 14.3752 10.5 14.3726C8.47198 14.3726 6.83023 13.2634 6.24223 11.8369C6.16645 11.6529 6.02067 11.5065 5.83698 11.43C5.65329 11.3535 5.44673 11.3531 5.26273 11.4289C5.07874 11.5047 4.93239 11.6505 4.85587 11.8341C4.77936 12.0178 4.77895 12.2244 4.85473 12.4084C5.70898 14.4776 7.95748 15.8726 10.5 15.8726C11.3274 15.8748 12.1482 15.7243 12.921 15.4286L15.6315 15.8636C15.7576 15.8839 15.8869 15.8716 16.007 15.8279C16.127 15.7842 16.2339 15.7106 16.3176 15.614C16.4012 15.5173 16.4587 15.401 16.4847 15.2759C16.5108 15.1508 16.5044 15.0211 16.4662 14.8991L15.8662 12.9769C16.2803 12.2613 16.4988 11.4494 16.5 10.6226C16.5 8.46115 15.0277 6.67315 13.0327 5.8609C12.9415 5.82381 12.8438 5.80505 12.7453 5.80571C12.6468 5.80637 12.5494 5.82642 12.4587 5.86473C12.3679 5.90303 12.2856 5.95884 12.2164 6.02896C12.1472 6.09908 12.0926 6.18214 12.0555 6.2734V6.27264Z" fill="#849AA9"/>
</svg>
