<svg width="19" height="19" viewBox="0 0 19 19" fill="none" xmlns="http://www.w3.org/2000/svg">
<path d="M7.25 3.87274C6.45435 3.87274 5.69129 4.18881 5.12868 4.75142C4.56607 5.31403 4.25 6.07709 4.25 6.87274C4.25 7.66839 4.56607 8.43145 5.12868 8.99406C5.69129 9.55667 6.45435 9.87274 7.25 9.87274C8.04565 9.87274 8.80871 9.55667 9.37132 8.99406C9.93393 8.43145 10.25 7.66839 10.25 6.87274C10.25 6.07709 9.93393 5.31403 9.37132 4.75142C8.80871 4.18881 8.04565 3.87274 7.25 3.87274ZM2.75 6.87274C2.75 5.67927 3.22411 4.53468 4.06802 3.69076C4.91193 2.84685 6.05653 2.37274 7.25 2.37274C8.44347 2.37274 9.58807 2.84685 10.432 3.69076C11.2759 4.53468 11.75 5.67927 11.75 6.87274C11.75 8.06622 11.2759 9.21081 10.432 10.0547C9.58807 10.8986 8.44347 11.3727 7.25 11.3727C6.05653 11.3727 4.91193 10.8986 4.06802 10.0547C3.22411 9.21081 2.75 8.06622 2.75 6.87274Z" fill="#849AA9"/>
<path d="M2.843 14.3727H11.657C11.2468 12.7249 9.512 11.3726 7.25 11.3726C4.988 11.3726 3.25325 12.7249 2.843 14.3727V14.3727ZM1.25 15.1227C1.25 12.1189 4.049 9.87265 7.25 9.87265C10.451 9.87265 13.25 12.1189 13.25 15.1227C13.25 15.3216 13.171 15.5123 13.0303 15.653C12.8897 15.7936 12.6989 15.8727 12.5 15.8727H2C1.80109 15.8727 1.61032 15.7936 1.46967 15.653C1.32902 15.5123 1.25 15.3216 1.25 15.1227ZM12.5007 9.77815C12.4116 9.93909 12.315 10.0958 12.2112 10.2476C12.6785 10.6601 13.094 11.1296 13.4465 11.6456C14.8497 12.1219 15.857 13.1682 16.157 14.3727H14.6C14.6982 14.8572 14.75 15.3589 14.75 15.8727H17C17.1989 15.8727 17.3897 15.7936 17.5303 15.653C17.671 15.5123 17.75 15.3216 17.75 15.1227C17.75 13.0287 16.3895 11.3029 14.4815 10.4494C15.2638 9.85226 15.8288 9.01512 16.0899 8.06622C16.351 7.11732 16.2938 6.10899 15.9271 5.19569C15.5604 4.28239 14.9044 3.51449 14.0596 3.00962C13.2148 2.50475 12.2278 2.29075 11.2498 2.4004C11.7511 2.84941 12.1737 3.37924 12.5 3.9679C13.1433 4.13498 13.713 4.51089 14.1197 5.03667C14.5264 5.56244 14.747 6.20833 14.747 6.87302C14.747 7.53772 14.5264 8.18361 14.1197 8.70938C13.713 9.23515 13.1433 9.61107 12.5 9.77815H12.5007Z" fill="#849AA9"/>
</svg>
